<svg xmlns="http://www.w3.org/2000/svg" viewBox="0 0 544.36 200"><title>Recurso 4</title><g id="Capa_2" data-name="Capa 2"><g id="Capa_1-2" data-name="Capa 1"><path d="M62.94,10.81c-6,0-12,0-18,0-2.45,0-4.56.44-5.38,2.95s-.05,4.23,2,5.94a6.45,6.45,0,0,1,2.26,4.22c.18,9.14.06,18.29.06,27.44a4.61,4.61,0,0,1-3.46,4.78,8.42,8.42,0,0,1-5.29-.76c-.93-.46-1.57-2.27-1.6-3.48q-.24-9.39-.06-18.78a17,17,0,0,0-2.6-9.82C23.84,12.28,33,1.09,42.4.44S61.4.07,70.9,0c3.83,0,7.67.25,11.51.31C93.87.5,102.06,13.53,95.68,23.22a16.66,16.66,0,0,0-2.43,8.62c-.21,14.44,0,28.89,0,43.33a5.4,5.4,0,0,0,3.16,5.24c17.56,9.64,27.89,24.26,32.25,43.11,6.29,27.18-9.77,55.55-31.36,67.36-31.71,17.35-67.37,8.82-87.63-16.06C3.85,167.72-.22,159.63,0,150.31A15.86,15.86,0,0,1,10.06,135.4c6.21-2.74,12.42-2.65,17.82,1.76a23.31,23.31,0,0,1,4.88,6.29C36.1,149.09,39,155,42.47,160.53a16.82,16.82,0,0,0,16.43,8.19c7.33-.62,12.49-4.63,15.43-11.08,2.21-4.84,1.24-9.5-1.14-14.11s-4.62-9.57-6.9-14.37c-1.48-3.12-.56-5.81,1.78-8.13,2.72-2.71,5.46-5.41,8.3-8,4-3.66,7-8,7.4-13.27.29-3.78-.5-7.64-.83-11.47-.24-2.87-.7-5.74-.71-8.62-.09-18.61-.06-37.23-.12-55.84a4.35,4.35,0,0,1,2.15-4c2.41-1.56,3.29-3.72,2.5-5.74-1-2.43-2.94-3.28-5.54-3.26C75.13,10.85,69,10.81,62.94,10.81Z"/><path d="M48.63,151.36c.1-10-10.18-20-21.13-20.68-5.76-.36-10.22-2.74-12.45-8.16s-1.78-10.38,2.29-14.82a14.17,14.17,0,0,1,17.77-2.48c4.17,2.39,7.76,2.36,11.56-.28A14.13,14.13,0,0,1,49,103.57c3.37-1.46,4.84-3.83,5.13-7.49.51-6.48,6.89-10.8,13.34-9.49,6.64,1.35,10.78,7.57,9,13.54a11.33,11.33,0,0,1-15.27,7.19c-4-1.72-7.36-1.54-10.7,1a3,3,0,0,1-.43.25c-4.09,2.11-7.38,4.67-8,9.65-.64,5.59-.45,10.77,3.08,15.62,3.72,5.11,8,8.79,14.76,10.15s9.52,7.4,6.71,12.71a9.48,9.48,0,0,1-10.33,5.1c-4.79-.94-7.41-3.92-7.71-8.77C48.6,152.49,48.63,151.92,48.63,151.36Z"/><path d="M175.81,148.48a37.11,37.11,0,0,1-17.95-4.32,31.4,31.4,0,0,1-12.64-12.67q-4.66-8.34-4.67-20.41t4.69-20.53a31.42,31.42,0,0,1,12.7-12.67,37.09,37.09,0,0,1,17.87-4.3,39.36,39.36,0,0,1,12.69,2,31.11,31.11,0,0,1,10.18,5.59A28.7,28.7,0,0,1,205.79,90a32.89,32.89,0,0,1,3.46,11.72H189a14.38,14.38,0,0,0-1.42-4.47,11,11,0,0,0-2.66-3.37,11.85,11.85,0,0,0-3.81-2.15,14.74,14.74,0,0,0-4.85-.75,14.05,14.05,0,0,0-8.33,2.39,14.67,14.67,0,0,0-5.15,6.86A29.77,29.77,0,0,0,161,111.08a30,30,0,0,0,1.76,11,14.12,14.12,0,0,0,5.15,6.77,14.52,14.52,0,0,0,8.33,2.29,14.71,14.71,0,0,0,4.78-.73,11.54,11.54,0,0,0,3.81-2.15,11.37,11.37,0,0,0,2.71-3.39,14.09,14.09,0,0,0,1.44-4.42h20.26a31.39,31.39,0,0,1-3.07,10.72,30,30,0,0,1-6.79,9,31.73,31.73,0,0,1-10.23,6.15A37.42,37.42,0,0,1,175.81,148.48Z"/><path d="M242.46,148.48a31.21,31.21,0,0,1-14.9-3.39,23.93,23.93,0,0,1-9.81-9.57A29.11,29.11,0,0,1,214.28,121a29.08,29.08,0,0,1,3.47-14.5A24.18,24.18,0,0,1,227.56,97a34.25,34.25,0,0,1,29.84,0,24.24,24.24,0,0,1,9.76,9.57,29.08,29.08,0,0,1,3.47,14.5,29.11,29.11,0,0,1-3.47,14.48,24,24,0,0,1-9.76,9.57A31.09,31.09,0,0,1,242.46,148.48Zm0-14.94a6.9,6.9,0,0,0,4.32-1.46,9.49,9.49,0,0,0,2.93-4.27,22.8,22.8,0,0,0,0-13.68,9.15,9.15,0,0,0-2.93-4.17,7.25,7.25,0,0,0-8.62,0,9,9,0,0,0-2.95,4.17,22.8,22.8,0,0,0,0,13.68,9.36,9.36,0,0,0,2.95,4.27A6.9,6.9,0,0,0,242.46,133.54Z"/><path d="M297.73,148.39a20.25,20.25,0,0,1-11.3-3.23,21.52,21.52,0,0,1-7.79-9.35A35.21,35.21,0,0,1,275.81,121a34.11,34.11,0,0,1,2.95-15,22.16,22.16,0,0,1,7.89-9.27,19.65,19.65,0,0,1,10.89-3.18,17.91,17.91,0,0,1,6.49,1.1,14.66,14.66,0,0,1,4.91,3.1,16.63,16.63,0,0,1,3.39,4.74h.2V74.66h19.58v72.75H312.72V139h-.24a14.94,14.94,0,0,1-3.25,5,14.29,14.29,0,0,1-5,3.25A17.73,17.73,0,0,1,297.73,148.39Zm6.45-15.24a7.56,7.56,0,0,0,4.68-1.49,9.67,9.67,0,0,0,3.13-4.24,19.48,19.48,0,0,0,0-13,9.67,9.67,0,0,0-3.13-4.22,7.63,7.63,0,0,0-4.68-1.49,7.13,7.13,0,0,0-4.57,1.49,9.16,9.16,0,0,0-2.86,4.22,19.61,19.61,0,0,0-1,6.55,19.37,19.37,0,0,0,1,6.49,9.16,9.16,0,0,0,2.86,4.22A7.07,7.07,0,0,0,304.18,133.15Z"/><path d="M367,148.48a30.16,30.16,0,0,1-14.6-3.39,23.86,23.86,0,0,1-9.69-9.59A29.29,29.29,0,0,1,339.23,121a29,29,0,0,1,3.45-14.35A24.52,24.52,0,0,1,352.25,97a28.49,28.49,0,0,1,14.28-3.47,30.22,30.22,0,0,1,11,1.93,24.88,24.88,0,0,1,8.57,5.52,24.14,24.14,0,0,1,5.54,8.57,30.51,30.51,0,0,1,1.93,11.13v4.88H345.14V114.74H384.6l-9.09,2.06a11.7,11.7,0,0,0-1-5.11,7.14,7.14,0,0,0-2.9-3.17,10.55,10.55,0,0,0-9.38,0,7.09,7.09,0,0,0-2.9,3.17,11.7,11.7,0,0,0-1,5.11v8.25a11.71,11.71,0,0,0,1.12,5.37,7.44,7.44,0,0,0,3.2,3.29,10.24,10.24,0,0,0,4.9,1.1,12.33,12.33,0,0,0,3.72-.53,7.94,7.94,0,0,0,2.83-1.57,6.56,6.56,0,0,0,1.76-2.44l17.28,1.12a18.79,18.79,0,0,1-4.74,8.94,24.58,24.58,0,0,1-9.08,6A33.57,33.57,0,0,1,367,148.48Z"/><path d="M420.09,74.66v72.75H400.51V74.66Z"/><path d="M444.75,148.34a23.12,23.12,0,0,1-9.2-1.71,13.72,13.72,0,0,1-6.23-5.13,15.5,15.5,0,0,1-2.24-8.69,16.9,16.9,0,0,1,1.51-7.49,13.36,13.36,0,0,1,4.22-5.06,20.6,20.6,0,0,1,6.35-3,37.4,37.4,0,0,1,7.84-1.34q4.54-.35,7.3-.83a9.9,9.9,0,0,0,4-1.4,2.83,2.83,0,0,0,1.25-2.41v-.2a3.22,3.22,0,0,0-.76-2.12,4.77,4.77,0,0,0-2.08-1.39,9,9,0,0,0-3.17-.49,9.47,9.47,0,0,0-3.34.54,5.06,5.06,0,0,0-3.45,4.24L429,111.08a18.34,18.34,0,0,1,3.56-9.25,19.15,19.15,0,0,1,8.38-6.1,35.42,35.42,0,0,1,13.21-2.18,40,40,0,0,1,10.49,1.27,23.24,23.24,0,0,1,7.84,3.66,16.15,16.15,0,0,1,4.86,5.72,16.32,16.32,0,0,1,1.66,7.42v35.79h-18.7V140H460a16.26,16.26,0,0,1-4,4.88,14.45,14.45,0,0,1-5,2.64A22,22,0,0,1,444.75,148.34ZM451.1,136a10.32,10.32,0,0,0,4.13-.85,8.1,8.1,0,0,0,3.24-2.49,6.34,6.34,0,0,0,1.27-4v-4.25l-1.61.52c-.55.17-1.15.34-1.78.48s-1.32.3-2.05.44l-2.37.47a11.91,11.91,0,0,0-3.59,1.07,5.64,5.64,0,0,0-2.17,1.81,4.2,4.2,0,0,0-.73,2.44,3.86,3.86,0,0,0,.73,2.39,4.55,4.55,0,0,0,2,1.49A7.82,7.82,0,0,0,451.1,136Z"/><path d="M522.44,148.39a17.73,17.73,0,0,1-6.52-1.15,14.29,14.29,0,0,1-5-3.25,14.79,14.79,0,0,1-3.25-5h-.24v8.45H488.06V74.66h19.58v27.83h.15a18.36,18.36,0,0,1,3.47-4.74,14.24,14.24,0,0,1,4.88-3.1,17.91,17.91,0,0,1,6.49-1.1,19.67,19.67,0,0,1,10.92,3.18,22.25,22.25,0,0,1,7.86,9.27,34.11,34.11,0,0,1,3,15,34.89,34.89,0,0,1-2.86,14.86,21.77,21.77,0,0,1-7.78,9.35A20.16,20.16,0,0,1,522.44,148.39ZM516,133.15a7.11,7.11,0,0,0,4.57-1.49,9.14,9.14,0,0,0,2.85-4.22,19.35,19.35,0,0,0,1-6.49,19.6,19.6,0,0,0-1-6.55,9.14,9.14,0,0,0-2.85-4.22,7.17,7.17,0,0,0-4.57-1.49,7.68,7.68,0,0,0-4.69,1.49,9.73,9.73,0,0,0-3.12,4.22,19.48,19.48,0,0,0,0,13,9.73,9.73,0,0,0,3.12,4.24A7.61,7.61,0,0,0,516,133.15Z"/></g></g></svg>