<svg xmlns="http://www.w3.org/2000/svg" viewBox="0 0 100 60"><defs><style>.cls-1{fill:currentColor;}</style></defs><title>Recurso 1</title><g id="Capa_2" data-name="Capa 2"><g id="OBJECTS"><path class="cls-1" d="M70.86,14.15,53.22,37.21c-3,3.77-2,9.31,3.73,9.31H70.86v5.95A7.46,7.46,0,0,1,63.47,60H33.56a6.8,6.8,0,0,1-6.73-6.87V46.61l18.92-27c2.38-3.17,1.08-7.76-3.75-7.76H26.83V7.53A7.46,7.46,0,0,1,34.21,0H64.13a6.8,6.8,0,0,1,6.73,6.87Z"/><path class="cls-1" d="M98,15.38H75.07L56.73,39.61a2,2,0,0,0,1.59,3.2h23L99.61,18.62A2,2,0,0,0,98,15.38Z"/><path class="cls-1" d="M40.17,15.38H18L.39,39.61A2,2,0,0,0,2,42.81H25L41.77,18.62A2,2,0,0,0,40.17,15.38Z"/></g></g></svg>