<svg xmlns="http://www.w3.org/2000/svg" viewBox="0 0 278.4 60"><defs><style>.cls-1{fill:currentColor;}</style></defs><title>Recurso 2</title><g id="Capa_2" data-name="Capa 2"><g id="OBJECTS"><path class="cls-1" d="M70.86,14.15,53.22,37.21c-3,3.77-2,9.31,3.73,9.31H70.86v5.95A7.46,7.46,0,0,1,63.47,60H33.56a6.8,6.8,0,0,1-6.73-6.87V46.61l18.92-27c2.38-3.17,1.08-7.76-3.75-7.76H26.83V7.53A7.46,7.46,0,0,1,34.21,0H64.13a6.8,6.8,0,0,1,6.73,6.87Z"/><path class="cls-1" d="M98,15.38H75.07L56.73,39.61a2,2,0,0,0,1.59,3.2h23L99.61,18.62A2,2,0,0,0,98,15.38Z"/><path class="cls-1" d="M40.17,15.38H18L.39,39.61A2,2,0,0,0,2,42.81H25L41.77,18.62A2,2,0,0,0,40.17,15.38Z"/><path class="cls-1" d="M117.29,45.44V38.35l17.49-22.3q1.78-2.31,3.84-4.58l4.16-4.59,1,3.46q-3,.12-5.92.15c-2,0-4,0-5.92,0H117.59V1.79h34.6V8.88L135,30.94q-1.85,2.34-3.93,4.7c-1.39,1.57-2.79,3.14-4.22,4.7l-1-3.45c2-.08,4.05-.13,6.08-.15s4,0,6.07,0H152.3v8.73Z"/><path class="cls-1" d="M172.69,46.11a17.37,17.37,0,0,1-8.62-2,14.15,14.15,0,0,1-5.7-5.75,17.85,17.85,0,0,1-2-8.69,17.79,17.79,0,0,1,2-8.66,14.32,14.32,0,0,1,5.7-5.77,19.15,19.15,0,0,1,17.28,0A14.28,14.28,0,0,1,187,21a17.9,17.9,0,0,1,2,8.66,18,18,0,0,1-2,8.69,14.1,14.1,0,0,1-5.68,5.75A17.47,17.47,0,0,1,172.69,46.11Zm0-7.94a5.1,5.1,0,0,0,3.23-1,6.77,6.77,0,0,0,2.09-3,12.52,12.52,0,0,0,.75-4.56A12.56,12.56,0,0,0,178,25a6.65,6.65,0,0,0-2.09-2.93,5.52,5.52,0,0,0-6.42,0A6.38,6.38,0,0,0,167.39,25a12.79,12.79,0,0,0-.73,4.6,12.75,12.75,0,0,0,.73,4.56,6.61,6.61,0,0,0,2.09,3A5.11,5.11,0,0,0,172.69,38.17Z"/><path class="cls-1" d="M204,1.79V45.44H193.88V1.79Z"/><path class="cls-1" d="M221.12,46a11.24,11.24,0,0,1-5.86-1.48,9.79,9.79,0,0,1-3.79-4.24,14.8,14.8,0,0,1-1.34-6.53V13.68H220.3V31.73A6.11,6.11,0,0,0,221.66,36a4.85,4.85,0,0,0,3.8,1.51,5.61,5.61,0,0,0,2.84-.69,4.64,4.64,0,0,0,1.87-2.06,7.61,7.61,0,0,0,.68-3.37V13.68H241V45.44H231.2l-.09-8.29h1a14.94,14.94,0,0,1-4,6.43A10,10,0,0,1,221.12,46Z"/><path class="cls-1" d="M262.31,58.21A21.82,21.82,0,0,1,254.56,57a12.1,12.1,0,0,1-5-3.36,10.36,10.36,0,0,1-2.35-5l9.31-.79a3.61,3.61,0,0,0,1,1.66,5.35,5.35,0,0,0,1.95,1.12,8.37,8.37,0,0,0,2.79.41,6.26,6.26,0,0,0,4.52-1.49,6,6,0,0,0,1.55-4.51V39.87H268a8.42,8.42,0,0,1-1.95,2.83,8.28,8.28,0,0,1-3,1.8,11.8,11.8,0,0,1-3.94.62,12.35,12.35,0,0,1-11.56-7.24,19.24,19.24,0,0,1-1.71-8.49,19.83,19.83,0,0,1,1.76-8.76,13.32,13.32,0,0,1,4.74-5.57,12.07,12.07,0,0,1,6.71-1.93,10.5,10.5,0,0,1,4,.71,9.74,9.74,0,0,1,3,1.95,10.21,10.21,0,0,1,2.08,2.81h.15V13.68h10v30.5a14.39,14.39,0,0,1-2,7.91,11.81,11.81,0,0,1-5.61,4.61A21.84,21.84,0,0,1,262.31,58.21Zm-.06-20.8a5.63,5.63,0,0,0,3.34-1,6.32,6.32,0,0,0,2.19-2.81,11.24,11.24,0,0,0,.77-4.35,11.38,11.38,0,0,0-.77-4.37,6.5,6.5,0,0,0-2.19-2.85,5.51,5.51,0,0,0-3.34-1,5.27,5.27,0,0,0-3.26,1,6.24,6.24,0,0,0-2.08,2.85,12,12,0,0,0-.72,4.37,12,12,0,0,0,.72,4.38,6,6,0,0,0,2.08,2.8A5.51,5.51,0,0,0,262.25,37.41Z"/></g></g></svg>