<svg xmlns="http://www.w3.org/2000/svg" viewBox="0 0 161.1 56.43"><defs><style>.cls-1{fill:currentColor;}</style></defs><title>Recurso 3</title><g id="Capa_2" data-name="Capa 2"><g id="OBJECTS"><path class="cls-1" d="M0,43.65V36.56L17.49,14.27Q19.27,12,21.33,9.68T25.49,5.1l1,3.46q-3,.11-5.91.14l-5.92,0H.29V0h34.6V7.09L17.72,29.15c-1.23,1.56-2.53,3.13-3.92,4.7S11,37,9.58,38.56l-1-3.46c2-.08,4.06-.13,6.08-.15s4.05,0,6.08,0H35v8.73Z"/><path class="cls-1" d="M55.4,44.33a17.51,17.51,0,0,1-8.63-2,14.36,14.36,0,0,1-5.7-5.76,18,18,0,0,1-2-8.69,17.86,17.86,0,0,1,2-8.65,14.41,14.41,0,0,1,5.7-5.78,17.41,17.41,0,0,1,8.63-2.06,17.47,17.47,0,0,1,8.66,2.06,14.3,14.3,0,0,1,5.68,5.78,17.86,17.86,0,0,1,2,8.65,18,18,0,0,1-2,8.69,14.25,14.25,0,0,1-5.68,5.76A17.58,17.58,0,0,1,55.4,44.33Zm0-7.94a5.11,5.11,0,0,0,3.22-1,6.74,6.74,0,0,0,2.1-3,12.52,12.52,0,0,0,.75-4.56,12.59,12.59,0,0,0-.75-4.6,6.64,6.64,0,0,0-2.1-2.93,5.16,5.16,0,0,0-3.22-1,5.22,5.22,0,0,0-3.19,1,6.43,6.43,0,0,0-2.11,2.93,12.83,12.83,0,0,0-.73,4.6,12.75,12.75,0,0,0,.73,4.56,6.57,6.57,0,0,0,2.09,3A5.17,5.17,0,0,0,55.4,36.39Z"/><path class="cls-1" d="M86.75,0V43.65H76.58V0Z"/><path class="cls-1" d="M103.83,44.21A11.12,11.12,0,0,1,98,42.73a9.75,9.75,0,0,1-3.79-4.23A14.88,14.88,0,0,1,92.84,32V11.9H103v18a6.1,6.1,0,0,0,1.36,4.24,4.86,4.86,0,0,0,3.79,1.5A5.72,5.72,0,0,0,111,35a4.67,4.67,0,0,0,1.87-2.07,7.61,7.61,0,0,0,.68-3.37V11.9h10.16V43.65h-9.81l-.09-8.29h1a14.86,14.86,0,0,1-4,6.43A10,10,0,0,1,103.83,44.21Z"/><path class="cls-1" d="M145,56.43a21.77,21.77,0,0,1-7.75-1.22,12.18,12.18,0,0,1-5-3.35,10.46,10.46,0,0,1-2.36-5l9.32-.79a3.67,3.67,0,0,0,1,1.66,5.45,5.45,0,0,0,1.95,1.13,8.7,8.7,0,0,0,2.8.41,6.23,6.23,0,0,0,4.51-1.5,6,6,0,0,0,1.56-4.51V38.09h-.36a8.46,8.46,0,0,1-1.94,2.82,8.3,8.3,0,0,1-3,1.81,11.85,11.85,0,0,1-3.94.61A12.71,12.71,0,0,1,135,41.47a12.57,12.57,0,0,1-4.72-5.38,19.24,19.24,0,0,1-1.71-8.49,20,20,0,0,1,1.75-8.76,13.4,13.4,0,0,1,4.75-5.57,12.07,12.07,0,0,1,6.71-1.93,10.54,10.54,0,0,1,4,.72,9.54,9.54,0,0,1,3,1.94,10.11,10.11,0,0,1,2.08,2.82h.15V11.9h10V42.39a14.37,14.37,0,0,1-2,7.91,12,12,0,0,1-5.61,4.62A22,22,0,0,1,145,56.43ZM145,35.63a5.66,5.66,0,0,0,3.34-1,6.24,6.24,0,0,0,2.18-2.81,11,11,0,0,0,.78-4.35,11.14,11.14,0,0,0-.78-4.36,6.44,6.44,0,0,0-2.18-2.86,5.6,5.6,0,0,0-3.34-1,5.37,5.37,0,0,0-3.27,1,6.34,6.34,0,0,0-2.08,2.86,12.18,12.18,0,0,0-.71,4.36,12.18,12.18,0,0,0,.71,4.38,6.11,6.11,0,0,0,2.08,2.8A5.54,5.54,0,0,0,145,35.63Z"/></g></g></svg>